<svg xmlns="http://www.w3.org/2000/svg" width="18" height="15" viewBox="0 0 18 15">
    <g fill="#C4C4C4" fill-rule="evenodd">
        <path d="M0 .708C0 .314.317 0 .709 0H16.29c.392 0 .709.317.709.708 0 .394-.317.709-.709.709H.71C.317 1.417 0 1.1 0 .708zM0 6.73c0-.395.317-.71.709-.71H16.29c.392 0 .709.318.709.71 0 .393-.317.707-.709.707H.71C.317 7.438 0 7.12 0 6.73zM0 12.75c0-.394.317-.708.709-.708H16.29c.392 0 .709.317.709.708 0 .394-.317.708-.709.708H.71c-.392 0-.709-.317-.709-.708z" transform="translate(.444 .333)"/>
    </g>
</svg>
