<?xml version="1.0" encoding="UTF-8"?>
<svg width="25px" height="24px" viewBox="0 0 25 24" version="1.1" xmlns="http://www.w3.org/2000/svg" xmlns:xlink="http://www.w3.org/1999/xlink">
    <title>95D7F7D6-D717-41F3-9009-B765FFB6E7D1</title>
    <g id="Practice-Page---Product" stroke="none" stroke-width="1" fill="none" fill-rule="evenodd">
        <g id="OPL_Practice-Pg--All-Content_Edit-Subtext" transform="translate(-403.000000, -265.000000)" fill="#101010" fill-rule="nonzero">
            <g id="Practice-Intro---Wide">
                <g id="Contributors">
                    <g transform="translate(264.816100, 242.000000)">
                        <path d="M150.895505,23 C144.282915,23 138.903539,28.3834056 138.903539,35 C138.903539,41.6165944 144.283209,47 150.895505,47 C157.507508,47 162.886884,41.6165944 162.886884,35 C162.886884,28.3834056 157.507508,23 150.895505,23 Z M152.953633,40.21316 C154.816502,38.7694081 156.122328,35.6416778 156.122328,33.4416463 C156.122328,30.4961052 153.781868,28.1082005 150.894918,28.1082005 C148.008556,28.1082005 145.668388,30.4961052 145.668388,33.4416463 C145.668388,35.6416778 146.973921,38.7694081 148.837084,40.21316 C146.252697,40.5539046 144.190172,41.5210928 143.347571,42.7641076 C141.472974,40.8156707 140.314324,38.1480503 140.314324,35.2084923 C140.314324,29.2554837 145.060918,24.4117647 150.895505,24.4117647 C156.729505,24.4117647 161.476099,29.2551845 161.476099,35.2084923 C161.476099,38.1480503 160.317449,40.8156707 158.442853,42.7647059 C157.600252,41.5213919 155.537726,40.5539046 152.953633,40.21316 Z" id="User-icon-Copy-2"></path>
                    </g>
                </g>
            </g>
        </g>
    </g>
</svg>